# File created by Blade
# Date/Time:  Tue Jan 27 20:02:37 2015
# Frame Rate: 120.000 fps
#------------------------------------------------------
:FULLY-SPECIFIED
:DEGREES
2111
root 8.015720 32.519348 4.705204 -4.304003 -13.892967 -11.560914
Spine 6.120351 10.569214 9.367392
Head 15.564038 -8.142713 5.008144
LeftShoulder -15.366747 3.733235 27.979784
LeftArm -8.815314 -11.528604 -78.732390
LeftForeArm -18.557075 0.000000 119.710042
LeftHand 10.987340 0.000000 -15.742412
LeftHandThumb1 -26.253704 0.000000 33.147579
RightShoulder -19.595652 -18.600124 -21.068255
RightArm 10.153305 -19.965533 85.921058
RightForeArm -13.369030 -0.000000 8.404890
RightHand 18.561390 0.000000 8.151443
RightHandThumb1 -24.326973 -0.000000 -32.862282
LeftUpLeg 14.541452 11.174238 1.408180
LeftLeg -3.128523 -0.000000 0.000000
LeftFoot -20.361951 21.779188 -14.959894
LeftToeBase 18.710937 -0.000000 -0.000000
RightUpLeg -59.816677 -32.517297 -0.075808
RightLeg 102.947737 -0.000000 -0.000000
RightFoot 28.135932 -27.127565 17.506117
RightToeBase 20.345462 -0.000000 -0.000000
2112
root 8.027006 32.518497 4.695197 -4.252347 -14.238908 -11.581582
Spine 6.141592 10.864456 9.417449
Head 15.550493 -8.103315 4.945092
LeftShoulder -15.409790 3.822920 27.951335
LeftArm -8.812122 -11.604646 -78.805844
LeftForeArm -18.588606 -0.000000 119.783116
LeftHand 11.060376 -0.000000 -15.777673
LeftHandThumb1 -26.253704 0.000000 33.147579
RightShoulder -19.570660 -18.622001 -21.111645
RightArm 10.216556 -19.950029 85.893290
RightForeArm -13.298625 -0.000000 8.406539
RightHand 18.553995 -0.000000 8.171265
RightHandThumb1 -24.326973 -0.000000 -32.862282
LeftUpLeg 14.468880 11.154512 1.353135
LeftLeg -3.022217 -0.000000 0.000000
LeftFoot -20.547819 22.064805 -15.120621
LeftToeBase 18.742860 -0.000000 -0.000000
RightUpLeg -60.272327 -33.097195 0.547655
RightLeg 102.677074 -0.000000 -0.000000
RightFoot 28.096887 -27.286453 17.585281
RightToeBase 19.545059 -0.000000 -0.000000
2113
root 8.033547 32.518695 4.684893 -4.173812 -14.629701 -11.617356
Spine 6.121978 11.202647 9.460150
Head 15.581264 -8.068993 4.900280
LeftShoulder -15.420874 3.920026 27.932277
LeftArm -8.814223 -11.675832 -78.875872
LeftForeArm -18.659554 -0.000000 119.864160
LeftHand 11.099725 -0.000000 -15.837964
LeftHandThumb1 -26.253704 0.000000 33.147579
RightShoulder -19.531349 -18.597347 -21.150258
RightArm 10.204759 -19.896158 85.886316
RightForeArm -13.282200 -0.000000 8.426552
RightHand 18.578378 -0.000000 8.073825
RightHandThumb1 -24.326973 -0.000000 -32.862282
LeftUpLeg 14.389389 11.154846 1.311760
LeftLeg -2.924279 -0.000000 0.000000
LeftFoot -20.665115 22.427984 -15.126355
LeftToeBase 18.597687 -0.000000 -0.000000
RightUpLeg -60.718529 -33.549087 1.170096
RightLeg 102.411337 -0.000000 -0.000000
RightFoot 27.968901 -27.343409 17.890713
RightToeBase 19.429016 -0.000000 -0.000000
2114
root 8.038363 32.519823 4.678036 -4.113713 -15.059313 -11.649346
Spine 6.112201 11.524961 9.488167
Head 15.605377 -8.056734 4.902275
LeftShoulder -15.439879 4.009307 27.927153
LeftArm -8.854001 -11.734983 -78.940357
LeftForeArm -18.673761 -0.000000 119.958350
LeftHand 11.097318 -0.000000 -15.866440
LeftHandThumb1 -26.253704 0.000000 33.147579
RightShoulder -19.474478 -18.574227 -21.195365
RightArm 10.220343 -19.915999 85.858884
RightForeArm -13.212862 -0.000000 8.452668
RightHand 18.562411 -0.000000 8.051602
RightHandThumb1 -24.326973 -0.000000 -32.862282
LeftUpLeg 14.358426 11.254648 1.297073
LeftLeg -2.871802 -0.000000 0.000000
LeftFoot -20.846819 22.658347 -15.343613
LeftToeBase 18.745942 -0.000000 -0.000000
RightUpLeg -61.118624 -33.904372 1.768395
RightLeg 102.145415 -0.000000 -0.000000
RightFoot 27.932291 -27.241727 17.859167
RightToeBase 19.874481 -0.000000 -0.000000
2115
root 8.041449 32.522419 4.666392 -4.077469 -15.491996 -11.727841
Spine 6.165285 11.816536 9.567843
Head 15.624274 -7.996376 4.903281
LeftShoulder -15.411306 3.965514 27.952382
LeftArm -9.039542 -11.802644 -79.014405
LeftForeArm -18.675071 -0.000000 120.077617
LeftHand 11.098647 0.000000 -15.848661
LeftHandThumb1 -26.253704 0.000000 33.147579
RightShoulder -19.413053 -18.539165 -21.234851
RightArm 10.254889 -19.871985 85.817371
RightForeArm -13.210563 -0.000000 8.510937
RightHand 18.536015 -0.000000 8.133804
RightHandThumb1 -24.326973 -0.000000 -32.862282
LeftUpLeg 14.358298 11.352447 1.336581
LeftLeg -2.813650 -0.000000 0.000000
LeftFoot -20.985869 22.945368 -15.396215
LeftToeBase 18.743029 -0.000000 -0.000000
RightUpLeg -61.455110 -34.180566 2.380721
RightLeg 101.858670 -0.000000 -0.000000
RightFoot 27.893315 -27.216775 17.995033
RightToeBase 19.513312 -0.000000 -0.000000
2116
root 8.042417 32.523845 4.652757 -4.017013 -15.924680 -11.774548
Spine 6.175191 12.090744 9.576272
Head 15.640636 -7.914739 4.927907
LeftShoulder -15.407730 4.019140 27.995761
LeftArm -9.097931 -11.861992 -79.132607
LeftForeArm -18.672675 -0.000000 120.170066
LeftHand 11.070995 0.000000 -15.843872
LeftHandThumb1 -26.253704 0.000000 33.147579
RightShoulder -19.344928 -18.416952 -21.297576
RightArm 10.225704 -19.895566 85.821727
RightForeArm -13.154627 -0.000000 8.500408
RightHand 18.622991 -0.000000 8.087743
RightHandThumb1 -24.326973 -0.000000 -32.862282
LeftUpLeg 14.330610 11.463209 1.349566
LeftLeg -2.764903 -0.000000 0.000000
LeftFoot -21.109663 23.151723 -15.519411
LeftToeBase 18.783899 -0.000000 -0.000000
RightUpLeg -61.798078 -34.383215 2.952387
RightLeg 101.578209 -0.000000 -0.000000
RightFoot 27.940395 -27.139835 18.123105
RightToeBase 19.462891 -0.000000 -0.000000
